<svg 
          width="17" 
          height="17" fill="none" 
          xmlns="http://www.w3.org/2000/svg">
          <path d="M 0 8.5 C 0 3.805579662322998 3.805579662322998 0 8.5 0 C 13.19442081451416 0 17 3.805579662322998 17 8.5 C 17 13.19442081451416 13.19442081451416 17 8.5 17 C 3.805579662322998 17 0 13.19442081451416 0 8.5 Z M 9.25 3.5 C 9.25 3.0857863426208496 8.914213180541992 2.75 8.5 2.75 C 8.085786819458008 2.75 7.75 3.0857863426208496 7.75 3.5 L 7.75 8.5 C 7.75 8.75859260559082 7.883214950561523 8.998945236206055 8.102500915527344 9.135998725891113 L 11.102500915527344 11.010998725891113 C 11.453753471374512 11.230531692504883 11.916465759277344 11.123751640319824 12.135998725891113 10.772499084472656 C 12.355531692504883 10.421247482299805 12.248751640319824 9.958534240722656 11.897499084472656 9.739001274108887 L 9.25 8.084314346313477 L 9.25 3.5 Z" fill="rgb(0,0,0)"/>
        </svg>